<svg xmlns="http://www.w3.org/2000/svg" viewBox="0 0 900 700"><defs><linearGradient id="g" x2="1" y2="1"><stop stop-color="#456257"/><stop offset="1" stop-color="#172b28"/></linearGradient></defs><rect width="900" height="700" fill="url(#g)"/><circle cx="650" cy="190" r="115" fill="#c4e75b" opacity=".25"/><circle cx="570" cy="185" r="42" fill="#e8b28d"/><path d="M535 178c4-70 90-75 116-13-32-18-80-9-116 13M570 230c-38 42-48 120-54 205h151c-15-73-19-139-62-205z" fill="#253e36"/><path d="M535 420c-55 30-99 82-128 150h62l120-94M631 420c67 33 109 89 135 150h-67l-116-96" fill="#d99872"/><rect x="305" y="428" width="318" height="125" rx="8" fill="#f5e8bd" transform="rotate(-12 305 428)"/><path d="m510 424 45 102M543 417l45 102" stroke="#f28b5e" stroke-width="11"/><circle cx="165" cy="550" r="75" fill="#f28b5e" opacity=".3"/></svg>